<?xml version="1.0" standalone="no"?>
<!DOCTYPE svg PUBLIC "-//W3C//DTD SVG 20010904//EN"
 "http://www.w3.org/TR/2001/REC-SVG-20010904/DTD/svg10.dtd">
<svg version="1.0" xmlns="http://www.w3.org/2000/svg"
 width="512.000000pt" height="512.000000pt" viewBox="0 0 512.000000 512.000000"
 preserveAspectRatio="xMidYMid meet">

<g transform="translate(0.000000,512.000000) scale(0.100000,-0.100000)"
fill="#000000" stroke="none">
<path d="M1906 4860 c-279 -50 -462 -227 -515 -497 l-17 -87 -64 -12 c-269
-50 -471 -235 -535 -489 -31 -123 -15 -288 40 -397 14 -28 25 -51 25 -53 0 -1
-39 -22 -87 -46 -67 -33 -106 -61 -164 -119 -87 -86 -129 -161 -155 -277 -24
-107 -15 -273 18 -364 49 -132 119 -224 218 -285 l57 -35 -23 -74 c-86 -270 3
-502 234 -614 44 -21 90 -41 101 -44 19 -5 21 -12 21 -79 0 -150 52 -279 146
-368 54 -51 148 -101 214 -115 73 -14 70 -10 70 -90 0 -167 90 -330 245 -440
247 -177 560 -162 756 34 l69 69 68 -67 c77 -78 161 -124 267 -146 90 -19 148
-19 242 1 197 40 356 162 445 341 38 76 41 90 46 182 5 109 1 103 72 116 63
12 174 72 224 122 90 89 125 176 135 332 l6 103 54 21 c177 65 288 186 322
347 14 67 6 194 -17 275 -29 103 -29 99 9 117 54 26 149 120 189 188 20 34 46
98 58 143 19 71 22 99 17 212 -4 109 -9 141 -31 200 -51 135 -156 244 -303
316 l-83 41 25 49 c58 113 74 280 41 409 -67 256 -262 432 -535 484 l-65 12
-13 77 c-53 313 -295 510 -628 511 -218 0 -393 -81 -509 -237 l-35 -47 -30 44
c-71 102 -189 182 -326 218 -82 22 -229 31 -299 18z m1244 -565 c46 -24 70
-62 70 -112 0 -84 -51 -136 -133 -135 -46 1 -81 22 -107 65 -67 108 57 241
170 182z m117 -680 c33 -22 63 -74 63 -111 0 -71 -86 -143 -155 -130 -75 14
-126 94 -105 165 25 87 122 125 197 76z m749 -780 c84 -55 71 -192 -22 -231
-46 -19 -70 -18 -115 8 -97 54 -88 187 16 234 35 16 87 12 121 -11z m-120
-750 c38 -24 56 -60 56 -111 0 -141 -186 -182 -248 -55 -56 116 84 237 192
166z m-809 -682 c54 -35 69 -121 33 -181 -21 -34 -71 -62 -111 -62 -36 0 -88
31 -109 65 -73 119 69 255 187 178z"/>
</g>
</svg>
